<svg width="37" height="36" viewBox="0 0 37 36" fill="none" xmlns="http://www.w3.org/2000/svg">
<g clip-path="url(#clip0_3100_8038)">
<path d="M36.7073 2.59312C36.0981 3.4543 35.5037 4.29621 34.9071 5.13675C32.5132 8.50854 30.1192 11.8796 27.7239 15.2507C27.0571 16.1889 26.3938 17.1292 25.7136 18.0585C25.5724 18.2518 25.5822 18.3783 25.7178 18.5689C28.8784 23.0034 32.0326 27.442 35.1868 31.8806C35.6871 32.5843 36.181 33.2928 36.6827 34.0054C36.6237 34.0989 36.5204 34.0418 36.4389 34.0418C34.2382 34.0459 32.0382 34.0418 29.8375 34.0514C29.6105 34.0521 29.4854 33.9806 29.3583 33.8004C26.4247 29.6568 23.4834 25.5188 20.5477 21.3766C20.4367 21.2198 20.3193 21.1503 20.1198 21.1503C16.4442 21.1558 12.7693 21.1579 9.09374 21.149C8.7923 21.1483 8.70939 21.2226 8.71009 21.5259C8.72274 25.5821 8.71501 29.6383 8.73117 33.6945C8.73258 34.0494 8.64053 34.1264 8.2892 34.1223C6.60424 34.103 4.91858 34.1058 3.23291 34.1209C2.92445 34.1237 2.84294 34.0459 2.84364 33.7412C2.85418 29.2379 2.85067 24.7353 2.85067 20.2321C2.85067 14.4577 2.85348 8.68394 2.84294 2.90953C2.84294 2.58418 2.9125 2.48788 3.25961 2.49201C4.96846 2.51127 6.67732 2.50645 8.38617 2.49338C8.66934 2.49132 8.72555 2.56767 8.72485 2.84074C8.71361 6.95402 8.71852 11.068 8.7115 15.1813C8.7115 15.4158 8.78528 15.4653 9.01223 15.4647C12.711 15.4578 16.4098 15.4591 20.1085 15.4647C20.3193 15.4647 20.4451 15.3966 20.5667 15.226C23.5024 11.0831 26.4444 6.94439 29.3836 2.8036C29.4798 2.6681 29.5606 2.56079 29.763 2.56148C32.0333 2.56973 34.3042 2.56698 36.5752 2.56836C36.6061 2.56836 36.6371 2.58005 36.7059 2.5945L36.7073 2.59312Z" fill="black"/>
<mask id="path-2-outside-1_3100_8038" maskUnits="userSpaceOnUse" x="-1" y="-0.5" width="24" height="37" fill="black">
<rect fill="white" x="-1" y="-0.5" width="24" height="37"/>
<path d="M21.4949 12.1252C21.7274 11.8067 21.96 11.4889 22.1933 11.1704C22.2003 11.1608 22.2045 11.1491 22.2045 11.1367L22.1736 0.557091C22.1736 0.52545 22.1476 0.5 22.1153 0.5C14.774 0.51582 7.43407 0.531641 0.0941556 0.547461C0.0618335 0.547461 0.0358353 0.572911 0.0358353 0.604552C0.0238902 12.2173 0.0119451 23.8301 0 35.4429C0 35.4746 0.0259982 35.5 0.0583202 35.5C7.41018 35.4979 14.762 35.4959 22.1146 35.4931C22.1469 35.4931 22.1729 35.4677 22.1729 35.436C22.1694 32.1495 22.1659 28.863 22.1624 25.5765C22.1624 25.5642 22.1582 25.5518 22.1504 25.5422C21.9186 25.2409 21.686 24.9396 21.4541 24.639C21.4204 24.595 21.3487 24.6184 21.3494 24.6734L21.3824 34.5308C21.3824 34.5625 21.3564 34.5879 21.3241 34.5879L1.01533 34.5006C0.983012 34.5006 0.957014 34.4751 0.957014 34.4435L1.01674 1.45954C1.01674 1.42789 1.04274 1.40244 1.07506 1.40244H21.2314C21.2637 1.40244 21.2897 1.42789 21.2897 1.45885L21.3895 12.0922C21.3895 12.1472 21.4625 12.1699 21.4956 12.1252H21.4949Z"/>
</mask>
<path d="M21.4949 12.1252C21.7274 11.8067 21.96 11.4889 22.1933 11.1704C22.2003 11.1608 22.2045 11.1491 22.2045 11.1367L22.1736 0.557091C22.1736 0.52545 22.1476 0.5 22.1153 0.5C14.774 0.51582 7.43407 0.531641 0.0941556 0.547461C0.0618335 0.547461 0.0358353 0.572911 0.0358353 0.604552C0.0238902 12.2173 0.0119451 23.8301 0 35.4429C0 35.4746 0.0259982 35.5 0.0583202 35.5C7.41018 35.4979 14.762 35.4959 22.1146 35.4931C22.1469 35.4931 22.1729 35.4677 22.1729 35.436C22.1694 32.1495 22.1659 28.863 22.1624 25.5765C22.1624 25.5642 22.1582 25.5518 22.1504 25.5422C21.9186 25.2409 21.686 24.9396 21.4541 24.639C21.4204 24.595 21.3487 24.6184 21.3494 24.6734L21.3824 34.5308C21.3824 34.5625 21.3564 34.5879 21.3241 34.5879L1.01533 34.5006C0.983012 34.5006 0.957014 34.4751 0.957014 34.4435L1.01674 1.45954C1.01674 1.42789 1.04274 1.40244 1.07506 1.40244H21.2314C21.2637 1.40244 21.2897 1.42789 21.2897 1.45885L21.3895 12.0922C21.3895 12.1472 21.4625 12.1699 21.4956 12.1252H21.4949Z" fill="url(#paint0_linear_3100_8038)"/>
<path d="M21.4949 12.1252L21.3334 12.0072L21.1012 12.3252H21.4949V12.1252ZM22.1933 11.1704L22.3547 11.2886L22.3549 11.2883L22.1933 11.1704ZM22.2045 11.1367H22.4046L22.4045 11.1362L22.2045 11.1367ZM22.1736 0.557091H21.9736L21.9736 0.557675L22.1736 0.557091ZM22.1153 0.5V0.3L22.1149 0.3L22.1153 0.5ZM0.0941556 0.547461V0.747461L0.0945866 0.74746L0.0941556 0.547461ZM0.0358353 0.604552L0.235835 0.604757V0.604552H0.0358353ZM0 35.4429L-0.2 35.4427V35.4429H0ZM0.0583202 35.5V35.7H0.0583764L0.0583202 35.5ZM22.1146 35.4931V35.2931H22.1145L22.1146 35.4931ZM22.1729 35.436H22.3729V35.4358L22.1729 35.436ZM22.1624 25.5765H21.9624V25.5768L22.1624 25.5765ZM22.1504 25.5422L21.9919 25.6642L21.9945 25.6673L22.1504 25.5422ZM21.4541 24.639L21.2954 24.7607L21.2958 24.7612L21.4541 24.639ZM21.3494 24.6734L21.5494 24.6727L21.5494 24.6709L21.3494 24.6734ZM21.3824 34.5308H21.5824L21.5824 34.5302L21.3824 34.5308ZM21.3241 34.5879L21.3233 34.7879H21.3241V34.5879ZM1.01533 34.5006L1.01619 34.3006H1.01533V34.5006ZM0.957014 34.4435L0.757014 34.4431V34.4435H0.957014ZM1.01674 1.45954L1.21674 1.4599V1.45954H1.01674ZM21.2897 1.45885H21.0897L21.0897 1.46072L21.2897 1.45885ZM21.3895 12.0922H21.5895L21.5895 12.0903L21.3895 12.0922ZM21.4956 12.1252L21.6564 12.244L21.8919 11.9252H21.4956V12.1252ZM21.6564 12.2431C21.8889 11.9248 22.1214 11.6071 22.3547 11.2886L22.032 11.0523C21.7987 11.3708 21.566 11.6886 21.3334 12.0072L21.6564 12.2431ZM22.3549 11.2883C22.3847 11.2475 22.4046 11.1951 22.4046 11.1367H22.0046C22.0046 11.1032 22.016 11.0742 22.0317 11.0526L22.3549 11.2883ZM22.4045 11.1362L22.3736 0.556506L21.9736 0.557675L22.0046 11.1373L22.4045 11.1362ZM22.3736 0.557091C22.3736 0.410992 22.254 0.3 22.1153 0.3V0.7C22.0412 0.7 21.9736 0.639909 21.9736 0.557091H22.3736ZM22.1149 0.3C14.7736 0.315821 7.43364 0.331641 0.0937245 0.347461L0.0945866 0.74746C7.4345 0.73164 14.7744 0.71582 22.1157 0.7L22.1149 0.3ZM0.0941556 0.347461C-0.0445844 0.347461 -0.164165 0.458458 -0.164165 0.604552H0.235835C0.235835 0.687364 0.168251 0.747461 0.0941556 0.747461V0.347461ZM-0.164165 0.604346C-0.170137 6.41074 -0.17611 12.2171 -0.182082 18.0235C-0.188055 23.8299 -0.194027 29.6363 -0.2 35.4427L0.2 35.4431C0.205972 29.6367 0.211945 23.8303 0.217918 18.0239C0.22389 12.2175 0.229863 6.41115 0.235835 0.604757L-0.164165 0.604346ZM-0.2 35.4429C-0.2 35.589 -0.0804155 35.7 0.0583202 35.7V35.3C0.132412 35.3 0.2 35.3601 0.2 35.4429H-0.2ZM0.0583764 35.7C7.41024 35.6979 14.7621 35.6959 22.1147 35.6931L22.1145 35.2931C14.762 35.2959 7.41013 35.2979 0.0582641 35.3L0.0583764 35.7ZM22.1146 35.6931C22.2534 35.6931 22.3729 35.5821 22.3729 35.436H21.9729C21.9729 35.3532 22.0405 35.2931 22.1146 35.2931V35.6931ZM22.3729 35.4358C22.3712 33.7926 22.3694 32.1493 22.3677 30.5061C22.3659 28.8628 22.3641 27.2196 22.3624 25.5763L21.9624 25.5768C21.9641 27.22 21.9659 28.8633 21.9677 30.5065C21.9694 32.1498 21.9712 33.793 21.9729 35.4362L22.3729 35.4358ZM22.3624 25.5765C22.3624 25.5202 22.3436 25.4633 22.3064 25.417L21.9945 25.6673C21.9727 25.6403 21.9624 25.6081 21.9624 25.5765H22.3624ZM22.3089 25.4202C22.077 25.1188 21.8443 24.8174 21.6125 24.5169L21.2958 24.7612C21.5277 25.0618 21.7602 25.363 21.992 25.6641L22.3089 25.4202ZM21.6129 24.5174C21.4707 24.3318 21.1461 24.4144 21.1494 24.676L21.5494 24.6709C21.5503 24.7428 21.5 24.7931 21.4511 24.8091C21.4028 24.825 21.3365 24.8144 21.2954 24.7607L21.6129 24.5174ZM21.1494 24.6741L21.1824 34.5315L21.5824 34.5302L21.5494 24.6727L21.1494 24.6741ZM21.1824 34.5308C21.1824 34.448 21.25 34.3879 21.3241 34.3879V34.7879C21.4629 34.7879 21.5824 34.6769 21.5824 34.5308H21.1824ZM21.325 34.3879L1.01619 34.3006L1.01447 34.7006L21.3233 34.7879L21.325 34.3879ZM1.01533 34.3006C1.08943 34.3006 1.15701 34.3607 1.15701 34.4435H0.757014C0.757014 34.5896 0.876598 34.7006 1.01533 34.7006V34.3006ZM1.15701 34.4438L1.21674 1.4599L0.81674 1.45917L0.757014 34.4431L1.15701 34.4438ZM1.21674 1.45954C1.21674 1.54235 1.14916 1.60244 1.07506 1.60244V1.20244C0.93632 1.20244 0.816739 1.31344 0.816739 1.45954H1.21674ZM1.07506 1.60244H21.2314V1.20244H1.07506V1.60244ZM21.2314 1.60244C21.1589 1.60244 21.0897 1.5439 21.0897 1.45885H21.4897C21.4897 1.31189 21.3685 1.20244 21.2314 1.20244V1.60244ZM21.0897 1.46072L21.1895 12.094L21.5895 12.0903L21.4897 1.45697L21.0897 1.46072ZM21.1895 12.0922C21.1895 12.3543 21.5172 12.4325 21.6564 12.244L21.3347 12.0063C21.3758 11.9507 21.4425 11.9405 21.4895 11.9551C21.537 11.9698 21.5895 12.0185 21.5895 12.0922H21.1895ZM21.4956 11.9252H21.4949V12.3252H21.4956V11.9252Z" fill="#357BBC" mask="url(#path-2-outside-1_3100_8038)"/>
</g>
<defs>
<linearGradient id="paint0_linear_3100_8038" x1="11.1023" y1="0.5" x2="17.0625" y2="35.5" gradientUnits="userSpaceOnUse">
<stop stop-color="#337EB6"/>
<stop offset="1" stop-color="#23A978"/>
</linearGradient>
<clipPath id="clip0_3100_8038">
<rect width="36.7073" height="35" fill="white" transform="translate(0 0.5)"/>
</clipPath>
</defs>
</svg>
