<svg width="42" height="40" viewBox="0 0 42 40" fill="none" xmlns="http://www.w3.org/2000/svg">
<g clip-path="url(#clip0_3189_5458)">
<path d="M41.9512 2.3921C41.255 3.3763 40.5756 4.33849 39.8938 5.2991C37.1579 9.15257 34.422 13.0053 31.6844 16.8579C30.9224 17.9302 30.1643 19.0048 29.387 20.0668C29.2256 20.2877 29.2368 20.4323 29.3918 20.6501C33.0038 25.7181 36.6086 30.7908 40.2135 35.8635C40.7852 36.6677 41.3497 37.4774 41.9231 38.2918C41.8557 38.3987 41.7376 38.3335 41.6445 38.3335C39.1294 38.3382 36.6151 38.3335 34.1 38.3445C33.8406 38.3452 33.6976 38.2635 33.5523 38.0575C30.1996 33.3221 26.8381 28.5929 23.4831 23.859C23.3562 23.6797 23.2221 23.6003 22.994 23.6003C18.7934 23.6066 14.5935 23.609 10.3928 23.5988C10.0483 23.598 9.95359 23.6829 9.95439 24.0295C9.96884 28.6652 9.96001 33.3008 9.97848 37.9365C9.98009 38.3421 9.87489 38.4301 9.47337 38.4254C7.5477 38.4034 5.62123 38.4066 3.69475 38.4239C3.34222 38.427 3.24907 38.3382 3.24987 37.9899C3.26192 32.8433 3.2579 27.6975 3.2579 22.5509C3.2579 15.9516 3.26111 9.35303 3.24907 2.75371C3.24907 2.38188 3.32857 2.27183 3.72527 2.27654C5.67824 2.29855 7.63122 2.29305 9.58419 2.27811C9.90781 2.27576 9.97206 2.36301 9.97125 2.6751C9.9584 7.37598 9.96403 12.0777 9.956 16.7785C9.956 17.0466 10.0403 17.1032 10.2997 17.1024C14.5269 17.0946 18.754 17.0961 22.9812 17.1024C23.2221 17.1024 23.3658 17.0246 23.5048 16.8296C26.8598 12.095 30.2221 7.36498 33.5812 2.63265C33.6912 2.47778 33.7836 2.35515 34.0148 2.35594C36.6094 2.36537 39.2048 2.36223 41.8002 2.3638C41.8356 2.3638 41.8709 2.37716 41.9496 2.39367L41.9512 2.3921Z" fill="white"/>
<mask id="path-2-outside-1_3189_5458" maskUnits="userSpaceOnUse" x="-1" y="-1" width="27" height="42" fill="black">
<rect fill="white" x="-1" y="-1" width="27" height="42"/>
<path d="M24.5656 13.2859C24.8314 12.9219 25.0972 12.5588 25.3638 12.1948C25.3718 12.1838 25.3766 12.1704 25.3766 12.1563L25.3413 0.0652464C25.3413 0.0290858 25.3116 0 25.2746 0C16.8846 0.0180803 8.49608 0.0361607 0.107606 0.054241C0.0706669 0.054241 0.0409547 0.0833268 0.0409547 0.119487C0.0273031 13.3912 0.0136516 26.663 0 39.9348C0 39.9709 0.0297122 40 0.0666517 40C8.46878 39.9976 16.8709 39.9953 25.2738 39.9921C25.3108 39.9921 25.3405 39.9631 25.3405 39.9269C25.3365 36.1709 25.3325 32.4149 25.3284 28.6589C25.3284 28.6448 25.3236 28.6306 25.3148 28.6196C25.0498 28.2753 24.784 27.931 24.519 27.5875C24.4804 27.5371 24.3985 27.5639 24.3993 27.6268L24.4371 38.8924C24.4371 38.9285 24.4074 38.9576 24.3704 38.9576L1.16038 38.8578C1.12344 38.8578 1.09373 38.8287 1.09373 38.7925L1.16199 1.09661C1.16199 1.06045 1.1917 1.03137 1.22864 1.03137H24.2644C24.3014 1.03137 24.3311 1.06045 24.3311 1.09583L24.4451 13.2482C24.4451 13.3111 24.5286 13.337 24.5664 13.2859H24.5656Z"/>
</mask>
<path d="M24.5656 13.2859C24.8314 12.9219 25.0972 12.5588 25.3638 12.1948C25.3718 12.1838 25.3766 12.1704 25.3766 12.1563L25.3413 0.0652464C25.3413 0.0290858 25.3116 0 25.2746 0C16.8846 0.0180803 8.49608 0.0361607 0.107606 0.054241C0.0706669 0.054241 0.0409547 0.0833268 0.0409547 0.119487C0.0273031 13.3912 0.0136516 26.663 0 39.9348C0 39.9709 0.0297122 40 0.0666517 40C8.46878 39.9976 16.8709 39.9953 25.2738 39.9921C25.3108 39.9921 25.3405 39.9631 25.3405 39.9269C25.3365 36.1709 25.3325 32.4149 25.3284 28.6589C25.3284 28.6448 25.3236 28.6306 25.3148 28.6196C25.0498 28.2753 24.784 27.931 24.519 27.5875C24.4804 27.5371 24.3985 27.5639 24.3993 27.6268L24.4371 38.8924C24.4371 38.9285 24.4074 38.9576 24.3704 38.9576L1.16038 38.8578C1.12344 38.8578 1.09373 38.8287 1.09373 38.7925L1.16199 1.09661C1.16199 1.06045 1.1917 1.03137 1.22864 1.03137H24.2644C24.3014 1.03137 24.3311 1.06045 24.3311 1.09583L24.4451 13.2482C24.4451 13.3111 24.5286 13.337 24.5664 13.2859H24.5656Z" fill="url(#paint0_linear_3189_5458)"/>
<path d="M24.5656 13.2859L24.4041 13.168L24.1719 13.4859H24.5656V13.2859ZM25.3638 12.1948L25.5251 12.313L25.5253 12.3127L25.3638 12.1948ZM25.3766 12.1563H25.5766L25.5766 12.1557L25.3766 12.1563ZM25.3413 0.0652464H25.1413L25.1413 0.0658309L25.3413 0.0652464ZM25.2746 0V-0.2L25.2742 -0.2L25.2746 0ZM0.107606 0.054241V0.254241L0.108037 0.254241L0.107606 0.054241ZM0.0409547 0.119487L0.240955 0.119693V0.119487H0.0409547ZM0 39.9348L-0.2 39.9346V39.9348H0ZM0.0666517 40V40.2H0.0667078L0.0666517 40ZM25.2738 39.9921V39.7921H25.2738L25.2738 39.9921ZM25.3405 39.9269H25.5405V39.9267L25.3405 39.9269ZM25.3284 28.6589H25.1284V28.6591L25.3284 28.6589ZM25.3148 28.6196L25.1563 28.7416L25.1588 28.7448L25.3148 28.6196ZM24.519 27.5875L24.3602 27.7091L24.3606 27.7096L24.519 27.5875ZM24.3993 27.6268L24.5993 27.6261L24.5993 27.6242L24.3993 27.6268ZM24.4371 38.8924H24.6371L24.6371 38.8917L24.4371 38.8924ZM24.3704 38.9576L24.3696 39.1576H24.3704V38.9576ZM1.16038 38.8578L1.16124 38.6578H1.16038V38.8578ZM1.09373 38.7925L0.89373 38.7922V38.7925H1.09373ZM1.16199 1.09661L1.36199 1.09697V1.09661H1.16199ZM24.3311 1.09583H24.1311L24.1311 1.0977L24.3311 1.09583ZM24.4451 13.2482H24.6451L24.6451 13.2463L24.4451 13.2482ZM24.5664 13.2859L24.7272 13.4047L24.9627 13.0859H24.5664V13.2859ZM24.7271 13.4039C24.9928 13.04 25.2585 12.6769 25.5251 12.313L25.2024 12.0766C24.9358 12.4406 24.6699 12.8039 24.4041 13.168L24.7271 13.4039ZM25.5253 12.3127C25.5562 12.2705 25.5766 12.2164 25.5766 12.1563H25.1766C25.1766 12.1245 25.1875 12.0971 25.2022 12.0769L25.5253 12.3127ZM25.5766 12.1557L25.5413 0.064662L25.1413 0.0658309L25.1766 12.1569L25.5766 12.1557ZM25.5413 0.0652464C25.5413 -0.0853728 25.418 -0.2 25.2746 -0.2V0.2C25.2052 0.2 25.1413 0.143544 25.1413 0.0652464H25.5413ZM25.2742 -0.2C16.8841 -0.181919 8.49565 -0.163839 0.107175 -0.145759L0.108037 0.254241C8.49651 0.23616 16.885 0.21808 25.2751 0.2L25.2742 -0.2ZM0.107606 -0.145759C-0.035751 -0.145759 -0.159045 -0.0311264 -0.159045 0.119487H0.240955C0.240955 0.19778 0.177085 0.254241 0.107606 0.254241V-0.145759ZM-0.159045 0.119282C-0.165871 6.75516 -0.172697 13.391 -0.179523 20.0269C-0.186348 26.6628 -0.193174 33.2987 -0.2 39.9346L0.2 39.935C0.206826 33.2991 0.213651 26.6632 0.220477 20.0273C0.227303 13.3914 0.234129 6.75557 0.240955 0.119693L-0.159045 0.119282ZM-0.2 39.9348C-0.2 40.0854 -0.0767014 40.2 0.0666517 40.2V39.8C0.136126 39.8 0.2 39.8565 0.2 39.9348H-0.2ZM0.0667078 40.2C8.46883 40.1976 16.871 40.1953 25.2739 40.1921L25.2738 39.7921C16.8708 39.7953 8.46873 39.7976 0.0665956 39.8L0.0667078 40.2ZM25.2738 40.1921C25.4172 40.1921 25.5405 40.0775 25.5405 39.9269H25.1405C25.1405 39.8486 25.2044 39.7921 25.2738 39.7921V40.1921ZM25.5405 39.9267C25.5385 38.0487 25.5365 36.1707 25.5345 34.2927C25.5325 32.4147 25.5305 30.5367 25.5284 28.6587L25.1284 28.6591C25.1305 30.5371 25.1325 32.4151 25.1345 34.2931C25.1365 36.1711 25.1385 38.0491 25.1405 39.9271L25.5405 39.9267ZM25.5284 28.6589C25.5284 28.6008 25.5091 28.5421 25.4708 28.4944L25.1588 28.7448C25.1382 28.7191 25.1284 28.6887 25.1284 28.6589H25.5284ZM25.4733 28.4976C25.2082 28.1532 24.9423 27.8087 24.6773 27.4653L24.3606 27.7096C24.6257 28.0532 24.8914 28.3974 25.1563 28.7416L25.4733 28.4976ZM24.6777 27.4658C24.5308 27.274 24.1959 27.3599 24.1994 27.6293L24.5993 27.6242C24.6002 27.6923 24.5524 27.7397 24.5067 27.7547C24.4615 27.7695 24.399 27.7597 24.3602 27.7091L24.6777 27.4658ZM24.1993 27.6274L24.2371 38.8931L24.6371 38.8917L24.5993 27.6261L24.1993 27.6274ZM24.2371 38.8924C24.2371 38.8141 24.301 38.7576 24.3704 38.7576V39.1576C24.5138 39.1576 24.6371 39.043 24.6371 38.8924H24.2371ZM24.3713 38.7576L1.16124 38.6578L1.15952 39.0578L24.3696 39.1576L24.3713 38.7576ZM1.16038 38.6578C1.22986 38.6578 1.29373 38.7143 1.29373 38.7925H0.89373C0.89373 38.9432 1.01703 39.0578 1.16038 39.0578V38.6578ZM1.29373 38.7929L1.36199 1.09697L0.961988 1.09625L0.893731 38.7922L1.29373 38.7929ZM1.36199 1.09661C1.36199 1.1749 1.29812 1.23137 1.22864 1.23137V0.831365C1.08528 0.831365 0.961988 0.945998 0.961988 1.09661H1.36199ZM1.22864 1.23137H24.2644V0.831365H1.22864V1.23137ZM24.2644 1.23137C24.1965 1.23137 24.1311 1.17646 24.1311 1.09583H24.5311C24.5311 0.944445 24.4062 0.831365 24.2644 0.831365V1.23137ZM24.1311 1.0977L24.2451 13.25L24.6451 13.2463L24.5311 1.09395L24.1311 1.0977ZM24.2451 13.2482C24.2451 13.5181 24.5833 13.5996 24.7272 13.4047L24.4055 13.1671C24.4442 13.1147 24.5071 13.1052 24.551 13.1188C24.5953 13.1326 24.6451 13.1784 24.6451 13.2482H24.2451ZM24.5664 13.0859H24.5656V13.4859H24.5664V13.0859Z" fill="#357BBC" mask="url(#path-2-outside-1_3189_5458)"/>
</g>
<defs>
<linearGradient id="paint0_linear_3189_5458" x1="12.6883" y1="0" x2="19.5" y2="40" gradientUnits="userSpaceOnUse">
<stop stop-color="#337EB6"/>
<stop offset="1" stop-color="#23A978"/>
</linearGradient>
<clipPath id="clip0_3189_5458">
<rect width="41.9512" height="40" fill="white"/>
</clipPath>
</defs>
</svg>
