<svg width="72" height="70" viewBox="0 0 72 70" fill="none" xmlns="http://www.w3.org/2000/svg">
<g clip-path="url(#clip0_1658_4858)">
<path d="M66.9999 6.82721C65.8879 8.40193 64.8029 9.94143 63.7141 11.4784C59.3445 17.644 54.975 23.8083 50.6029 29.9726C49.3858 31.6882 48.1751 33.4075 46.9336 35.1068C46.6758 35.4602 46.6938 35.6916 46.9413 36.04C52.7101 44.1488 58.4673 52.2652 64.2245 60.3815C65.1377 61.6682 66.0393 62.9637 66.955 64.2667C66.8473 64.4378 66.6587 64.3334 66.51 64.3334C62.4931 64.3409 58.4776 64.3334 54.4607 64.351C54.0465 64.3522 53.8182 64.2214 53.586 63.8919C48.2315 56.3151 42.8629 48.7484 37.5046 41.1742C37.3019 40.8874 37.0877 40.7604 36.7235 40.7604C30.0147 40.7705 23.3071 40.7742 16.5982 40.7579C16.048 40.7566 15.8967 40.8925 15.898 41.4471C15.9211 48.8642 15.907 56.2812 15.9365 63.6982C15.939 64.3472 15.771 64.4881 15.1298 64.4805C12.0543 64.4453 8.97752 64.4504 5.90076 64.478C5.33774 64.4831 5.18897 64.3409 5.19025 63.7837C5.20949 55.5492 5.20307 47.3159 5.20307 39.0813C5.20307 28.5224 5.2082 17.9647 5.18896 7.40578C5.18896 6.81086 5.31593 6.63477 5.9495 6.64232C9.06858 6.67754 12.1877 6.66873 15.3067 6.64484C15.8236 6.64106 15.9262 6.78067 15.9249 7.28001C15.9044 14.8014 15.9134 22.3241 15.9006 29.8455C15.9006 30.2744 16.0352 30.365 16.4495 30.3637C23.2006 30.3511 29.9518 30.3537 36.703 30.3637C37.0877 30.3637 37.3173 30.2392 37.5392 29.9273C42.8975 22.3518 48.2674 14.7838 53.6322 7.21209C53.8079 6.96431 53.9554 6.7681 54.3248 6.76935C58.4686 6.78445 62.6137 6.77942 66.7588 6.78193C66.8152 6.78193 66.8716 6.80331 66.9973 6.82973L66.9999 6.82721Z" fill="black"/>
<g clip-path="url(#clip1_1658_4858)">
<path d="M0 3V67H42V51.44C42 51.44 40.5527 49.01 40.2905 48.78C40.0283 48.55 39.9024 48.47 39.9024 49.56V65.07H2.10805V4.92H40V22.93C40 23.15 40.7902 22.71 41 22.5C41.3985 22.1 42.0105 21.47 42.0105 21.35V3H0Z" fill="url(#paint0_linear_1658_4858)"/>
</g>
</g>
<defs>
<linearGradient id="paint0_linear_1658_4858" x1="21.0052" y1="3" x2="21.0052" y2="67" gradientUnits="userSpaceOnUse">
<stop offset="0.87" stop-color="#337EB7"/>
<stop offset="1" stop-color="#23A978"/>
</linearGradient>
<clipPath id="clip0_1658_4858">
<rect width="67" height="64" fill="white" transform="translate(0 3)"/>
</clipPath>
<clipPath id="clip1_1658_4858">
<rect width="43" height="64" fill="white" transform="translate(0 3)"/>
</clipPath>
</defs>
</svg>
