<svg width="20" height="20" viewBox="0 0 20 20" fill="none" xmlns="http://www.w3.org/2000/svg">
<path fill-rule="evenodd" clip-rule="evenodd" d="M3.84992 2.22655C4.26958 1.88787 4.90083 1.93422 5.25987 2.33009L9.68256 7.20645L14.785 2.28384C15.1711 1.91134 15.8042 1.90463 16.1991 2.26886C16.594 2.63308 16.6011 3.23032 16.215 3.60282L9.58413 10L3.74017 3.55658C3.38113 3.16071 3.43027 2.56524 3.84992 2.22655Z" fill="white" fill-opacity="0.54"/>
<path fill-rule="evenodd" clip-rule="evenodd" d="M3.84992 10.2266C4.26958 9.88787 4.90083 9.93422 5.25987 10.3301L9.68256 15.2064L14.785 10.2838C15.1711 9.91134 15.8042 9.90463 16.1991 10.2689C16.594 10.6331 16.6011 11.2303 16.215 11.6028L9.58413 18L3.74017 11.5566C3.38113 11.1607 3.43027 10.5652 3.84992 10.2266Z" fill="white" fill-opacity="0.54"/>
</svg>
