<svg width="129" height="128" viewBox="0 0 129 128" fill="none" xmlns="http://www.w3.org/2000/svg">
<rect x="0.5" width="128" height="128" rx="9" fill="url(#paint0_linear_1672_4872)"/>
<path d="M112.5 21.7406C110.907 24.1027 109.352 26.4119 107.792 28.7174C101.531 37.9657 95.2703 47.2122 89.0058 56.4586C87.2619 59.032 85.5271 61.611 83.7483 64.1599C83.3789 64.69 83.4047 65.0372 83.7593 65.5598C92.025 77.723 100.274 89.8975 108.523 102.072C109.832 104.002 111.124 105.945 112.436 107.9C112.281 108.156 112.011 108 111.798 108C106.043 108.011 100.289 108 94.5334 108.026C93.9398 108.028 93.6127 107.832 93.2801 107.338C85.608 95.9725 77.9156 84.6224 70.238 73.2611C69.9477 72.8309 69.6408 72.6403 69.1189 72.6403C59.5062 72.6554 49.8954 72.6611 40.2827 72.6366C39.4943 72.6347 39.2775 72.8384 39.2793 73.6705C39.3124 84.796 39.2922 95.9215 39.3345 107.047C39.3381 108.021 39.0974 108.232 38.1786 108.221C33.7719 108.168 29.3634 108.175 24.9549 108.217C24.1482 108.224 23.9351 108.011 23.9369 107.175C23.9645 94.8235 23.9553 82.4735 23.9553 70.1217C23.9553 54.2833 23.9626 38.4468 23.9351 22.6084C23.9351 21.716 24.117 21.4519 25.0248 21.4632C29.4939 21.5161 33.963 21.5029 38.4322 21.467C39.1727 21.4613 39.3198 21.6708 39.3179 22.4198C39.2885 33.7019 39.3014 44.9859 39.283 56.268C39.283 56.9114 39.476 57.0472 40.0695 57.0453C49.7428 57.0265 59.4162 57.0303 69.0895 57.0453C69.6408 57.0453 69.9697 56.8586 70.2876 56.3907C77.9653 45.0274 85.6594 33.6755 93.3463 22.3179C93.598 21.9462 93.8094 21.6519 94.3386 21.6538C100.276 21.6764 106.215 21.6689 112.155 21.6727C112.235 21.6727 112.316 21.7047 112.496 21.7443L112.5 21.7406Z" fill="white"/>
<g clip-path="url(#clip0_1672_4872)">
<path d="M16.5 16V112H76.6791V88.66C76.6791 88.66 74.6053 85.015 74.2296 84.67C73.854 84.325 73.6736 84.205 73.6736 85.84V109.105H19.5205V18.88H73.8134V45.895C73.8134 46.225 74.9457 45.565 75.2463 45.25C75.8173 44.65 76.6941 43.705 76.6941 43.525V16H16.5Z" fill="white"/>
</g>
<defs>
<linearGradient id="paint0_linear_1672_4872" x1="64.5" y1="0" x2="64.5" y2="128" gradientUnits="userSpaceOnUse">
<stop offset="0.87" stop-color="#337EB7"/>
<stop offset="1" stop-color="#23A978"/>
</linearGradient>
<clipPath id="clip0_1672_4872">
<rect width="61.6119" height="96" fill="white" transform="translate(16.5 16)"/>
</clipPath>
</defs>
</svg>
